<svg width="512" height="512" viewBox="0 0 512 512" fill="none" xmlns="http://www.w3.org/2000/svg">
  <rect width="512" height="512" rx="132" fill="#08101F"/>
  <rect x="28" y="28" width="456" height="456" rx="104" fill="url(#bg)" stroke="rgba(255,255,255,0.12)" stroke-width="2"/>
  <circle cx="256" cy="152" r="66" fill="url(#orb)" fill-opacity="0.95"/>
  <path d="M160 334L224 196H288L352 334H308.5L293 300H219L203.5 334H160ZM235 265H277L256 218L235 265Z" fill="#F6FBFF"/>
  <path d="M134 366C183.267 328 224.6 309 258 309C291.4 309 332.733 328 382 366" stroke="url(#line)" stroke-width="22" stroke-linecap="round"/>
  <path d="M196 136C216.333 108 236.333 94 256 94C275.667 94 295.667 108 316 136" stroke="#6DE8FF" stroke-width="14" stroke-linecap="round" opacity="0.95"/>
  <defs>
    <linearGradient id="bg" x1="82" y1="58" x2="434" y2="470" gradientUnits="userSpaceOnUse">
      <stop stop-color="#13254A"/>
      <stop offset="0.5" stop-color="#0D1836"/>
      <stop offset="1" stop-color="#0A1328"/>
    </linearGradient>
    <linearGradient id="orb" x1="214" y1="99" x2="306" y2="205" gradientUnits="userSpaceOnUse">
      <stop stop-color="#49F2C2"/>
      <stop offset="1" stop-color="#6EA8FE"/>
    </linearGradient>
    <linearGradient id="line" x1="134" y1="309" x2="382" y2="366" gradientUnits="userSpaceOnUse">
      <stop stop-color="#8D6BFF"/>
      <stop offset="1" stop-color="#49F2C2"/>
    </linearGradient>
  </defs>
</svg>
